<?xml version="1.0" encoding="UTF-8" standalone="no"?>
<!-- Created with Inkscape (http://www.inkscape.org/) -->

<svg
   xmlns:dc="http://purl.org/dc/elements/1.1/"
   xmlns:cc="http://creativecommons.org/ns#"
   xmlns:rdf="http://www.w3.org/1999/02/22-rdf-syntax-ns#"
   xmlns:svg="http://www.w3.org/2000/svg"
   xmlns="http://www.w3.org/2000/svg"
   xmlns:sodipodi="http://sodipodi.sourceforge.net/DTD/sodipodi-0.dtd"
   xmlns:inkscape="http://www.inkscape.org/namespaces/inkscape"
   width="297mm"
   height="210mm"
   viewBox="0 0 297 210"
   version="1.1"
   id="svg8"
   inkscape:version="0.92.3 (2405546, 2018-03-11)"
   sodipodi:docname="2minterms.svg">
  <defs
     id="defs2" />
  <sodipodi:namedview
     id="base"
     pagecolor="#ffffff"
     bordercolor="#666666"
     borderopacity="1.0"
     inkscape:pageopacity="0.0"
     inkscape:pageshadow="2"
     inkscape:zoom="1.7515623"
     inkscape:cx="467.38766"
     inkscape:cy="323.24705"
     inkscape:document-units="mm"
     inkscape:current-layer="layer1"
     showgrid="true"
     inkscape:window-width="1920"
     inkscape:window-height="1017"
     inkscape:window-x="2552"
     inkscape:window-y="-8"
     inkscape:window-maximized="1">
    <inkscape:grid
       type="xygrid"
       id="grid817" />
  </sodipodi:namedview>
  <metadata
     id="metadata5">
    <rdf:RDF>
      <cc:Work
         rdf:about="">
        <dc:format>image/svg+xml</dc:format>
        <dc:type
           rdf:resource="http://purl.org/dc/dcmitype/StillImage" />
        <dc:title />
      </cc:Work>
    </rdf:RDF>
  </metadata>
  <g
     inkscape:label="Layer 1"
     inkscape:groupmode="layer"
     id="layer1"
     transform="translate(0,-87)">
    <g
       id="g859"
       transform="translate(38.175597,141.74108)">
      <path
         sodipodi:nodetypes="cc"
         inkscape:connector-curvature="0"
         id="path830"
         d="m 43.845236,52.071429 c 5.843126,4.833482 8.184271,9.94157 0,15.875"
         style="fill:none;stroke:#000000;stroke-width:0.96499997;stroke-linecap:butt;stroke-linejoin:miter;stroke-miterlimit:4;stroke-dasharray:none;stroke-opacity:1" />
      <path
         sodipodi:nodetypes="cc"
         inkscape:connector-curvature="0"
         id="path832"
         d="m 43.845236,52.071429 c 28.410348,5.885107 20.721398,11.016165 0,15.875"
         style="fill:none;stroke:#000000;stroke-width:0.96499997;stroke-linecap:butt;stroke-linejoin:miter;stroke-miterlimit:4;stroke-dasharray:none;stroke-opacity:1" />
      <path
         d="m 65.491358,59.766777 a 1.3229166,1.3229166 0 0 1 -1.288904,1.322479 1.3229166,1.3229166 0 0 1 -1.35518,-1.254476 1.3229166,1.3229166 0 0 1 1.21922,-1.386986 1.3229166,1.3229166 0 0 1 1.417873,1.183158"
         sodipodi:open="true"
         sodipodi:end="6.1803331"
         sodipodi:start="0"
         sodipodi:ry="1.3229166"
         sodipodi:rx="1.3229166"
         sodipodi:cy="59.766777"
         sodipodi:cx="64.168442"
         sodipodi:type="arc"
         id="path834"
         style="opacity:1;fill:none;fill-opacity:0.39215686;stroke:#000000;stroke-width:0.36500001;stroke-linejoin:round;stroke-miterlimit:4;stroke-dasharray:none;stroke-opacity:1" />
    </g>
    <g
       id="g847"
       transform="translate(51.403279,168.19945)">
      <path
         style="fill:none;stroke:#000000;stroke-width:0.96499997;stroke-linecap:butt;stroke-linejoin:miter;stroke-miterlimit:4;stroke-dasharray:none;stroke-opacity:1"
         d="m 89.958332,40.354167 c 5.843126,4.833482 8.184271,9.94157 0,15.875"
         id="path841"
         inkscape:connector-curvature="0"
         sodipodi:nodetypes="cc" />
      <path
         style="fill:none;stroke:#000000;stroke-width:0.96499997;stroke-linecap:butt;stroke-linejoin:miter;stroke-miterlimit:4;stroke-dasharray:none;stroke-opacity:1"
         d="m 89.958332,40.354167 c 28.410348,5.885107 20.721398,11.016165 0,15.875"
         id="path843"
         inkscape:connector-curvature="0"
         sodipodi:nodetypes="cc" />
      <path
         style="opacity:1;fill:none;fill-opacity:0.39215686;stroke:#000000;stroke-width:0.36500001;stroke-linejoin:round;stroke-miterlimit:4;stroke-dasharray:none;stroke-opacity:1"
         id="path845"
         sodipodi:type="arc"
         sodipodi:cx="110.28154"
         sodipodi:cy="48.049515"
         sodipodi:rx="1.3229166"
         sodipodi:ry="1.3229166"
         sodipodi:start="0"
         sodipodi:end="6.1803331"
         sodipodi:open="true"
         d="m 111.60446,48.049515 a 1.3229166,1.3229166 0 0 1 -1.28891,1.322479 1.3229166,1.3229166 0 0 1 -1.35518,-1.254477 1.3229166,1.3229166 0 0 1 1.21922,-1.386985 1.3229166,1.3229166 0 0 1 1.41788,1.183158" />
    </g>
    <g
       id="g863"
       transform="translate(29.576631,135.88244)">
      <path
         inkscape:connector-curvature="0"
         id="path849"
         d="M 15.875,53.583334 V 64.166667 L 26.458333,58.875001 Z"
         style="fill:none;stroke:#000000;stroke-width:0.86500001;stroke-linecap:butt;stroke-linejoin:miter;stroke-miterlimit:4;stroke-dasharray:none;stroke-opacity:1" />
      <path
         style="opacity:1;fill:none;fill-opacity:0.39215686;stroke:#000000;stroke-width:0.36500001;stroke-linejoin:round;stroke-miterlimit:4;stroke-dasharray:none;stroke-opacity:1"
         id="path854"
         sodipodi:type="arc"
         sodipodi:cx="28.846575"
         sodipodi:cy="59.010826"
         sodipodi:rx="1.3229166"
         sodipodi:ry="1.3229166"
         sodipodi:start="0"
         sodipodi:end="6.2800794"
         sodipodi:open="true"
         d="m 30.169491,59.010826 a 1.3229166,1.3229166 0 0 1 -1.321889,1.322916 1.3229166,1.3229166 0 0 1 -1.323942,-1.320861 1.3229166,1.3229166 0 0 1 1.319833,-1.324968 1.3229166,1.3229166 0 0 1 1.325992,1.318804" />
    </g>
    <g
       transform="translate(29.576631,151.75744)"
       id="g869">
      <path
         style="fill:none;stroke:#000000;stroke-width:0.86500001;stroke-linecap:butt;stroke-linejoin:miter;stroke-miterlimit:4;stroke-dasharray:none;stroke-opacity:1"
         d="M 15.875,53.583334 V 64.166667 L 26.458333,58.875001 Z"
         id="path865"
         inkscape:connector-curvature="0" />
      <path
         d="m 30.169491,59.010826 a 1.3229166,1.3229166 0 0 1 -1.321889,1.322916 1.3229166,1.3229166 0 0 1 -1.323942,-1.320861 1.3229166,1.3229166 0 0 1 1.319833,-1.324968 1.3229166,1.3229166 0 0 1 1.325992,1.318804"
         sodipodi:open="true"
         sodipodi:end="6.2800794"
         sodipodi:start="0"
         sodipodi:ry="1.3229166"
         sodipodi:rx="1.3229166"
         sodipodi:cy="59.010826"
         sodipodi:cx="28.846575"
         sodipodi:type="arc"
         id="path867"
         style="opacity:1;fill:none;fill-opacity:0.39215686;stroke:#000000;stroke-width:0.36500001;stroke-linejoin:round;stroke-miterlimit:4;stroke-dasharray:none;stroke-opacity:1" />
    </g>
    <path
       style="fill:none;stroke:#000000;stroke-width:0.26458332px;stroke-linecap:butt;stroke-linejoin:miter;stroke-opacity:1"
       d="m 60.003714,194.75744 h 15.875 v 3.96875 h 10.583333"
       id="path871"
       inkscape:connector-curvature="0"
       sodipodi:nodetypes="cccc" />
    <path
       style="fill:none;stroke:#000000;stroke-width:0.26458332px;stroke-linecap:butt;stroke-linejoin:miter;stroke-opacity:1"
       d="m 60.003714,210.63244 h 15.875 v -5.29166 h 10.583334"
       id="path873"
       inkscape:connector-curvature="0"
       sodipodi:nodetypes="cccc" />
    <path
       style="fill:none;stroke:#000000;stroke-width:0.26458332px;stroke-linecap:butt;stroke-linejoin:miter;stroke-opacity:1"
       d="M 34.395833,230.85417 H 116.41667"
       id="path885"
       inkscape:connector-curvature="0"
       sodipodi:nodetypes="cc" />
    <path
       style="fill:none;stroke:#000000;stroke-width:0.26458332px;stroke-linecap:butt;stroke-linejoin:miter;stroke-opacity:1"
       d="m 137.58333,230.85417 v -10.58333 l 6.89658,-0.18895"
       id="path887"
       inkscape:connector-curvature="0"
       sodipodi:nodetypes="ccc" />
    <g
       transform="translate(29.576632,191.44494)"
       id="g893">
      <path
         style="fill:none;stroke:#000000;stroke-width:0.86500001;stroke-linecap:butt;stroke-linejoin:miter;stroke-miterlimit:4;stroke-dasharray:none;stroke-opacity:1"
         d="M 15.875,53.583334 V 64.166667 L 26.458333,58.875001 Z"
         id="path889"
         inkscape:connector-curvature="0" />
      <path
         d="m 30.169491,59.010826 a 1.3229166,1.3229166 0 0 1 -1.321889,1.322916 1.3229166,1.3229166 0 0 1 -1.323942,-1.320861 1.3229166,1.3229166 0 0 1 1.319833,-1.324968 1.3229166,1.3229166 0 0 1 1.325992,1.318804"
         sodipodi:open="true"
         sodipodi:end="6.2800794"
         sodipodi:start="0"
         sodipodi:ry="1.3229166"
         sodipodi:rx="1.3229166"
         sodipodi:cy="59.010826"
         sodipodi:cx="28.846575"
         sodipodi:type="arc"
         id="path891"
         style="opacity:1;fill:none;fill-opacity:0.39215686;stroke:#000000;stroke-width:0.36500001;stroke-linejoin:round;stroke-miterlimit:4;stroke-dasharray:none;stroke-opacity:1" />
    </g>
    <path
       style="fill:none;stroke:#000000;stroke-width:0.26458332px;stroke-linecap:butt;stroke-linejoin:miter;stroke-opacity:1"
       d="M 60.003714,250.31994 H 189.64955"
       id="path895"
       inkscape:connector-curvature="0"
       sodipodi:nodetypes="cc" />
    <g
       transform="translate(120.82584,180.89966)"
       id="g903">
      <path
         sodipodi:nodetypes="cc"
         inkscape:connector-curvature="0"
         id="path897"
         d="m 89.958332,40.354167 c 5.843126,4.833482 8.184271,9.94157 0,15.875"
         style="fill:none;stroke:#000000;stroke-width:0.96499997;stroke-linecap:butt;stroke-linejoin:miter;stroke-miterlimit:4;stroke-dasharray:none;stroke-opacity:1" />
      <path
         sodipodi:nodetypes="cc"
         inkscape:connector-curvature="0"
         id="path899"
         d="m 89.958332,40.354167 c 28.410348,5.885107 20.721398,11.016165 0,15.875"
         style="fill:none;stroke:#000000;stroke-width:0.96499997;stroke-linecap:butt;stroke-linejoin:miter;stroke-miterlimit:4;stroke-dasharray:none;stroke-opacity:1" />
      <path
         d="m 111.60446,48.049515 a 1.3229166,1.3229166 0 0 1 -1.28891,1.322479 1.3229166,1.3229166 0 0 1 -1.35518,-1.254477 1.3229166,1.3229166 0 0 1 1.21922,-1.386985 1.3229166,1.3229166 0 0 1 1.41788,1.183158"
         sodipodi:open="true"
         sodipodi:end="6.1803331"
         sodipodi:start="0"
         sodipodi:ry="1.3229166"
         sodipodi:rx="1.3229166"
         sodipodi:cy="48.049515"
         sodipodi:cx="110.28154"
         sodipodi:type="arc"
         id="path901"
         style="opacity:1;fill:none;fill-opacity:0.39215686;stroke:#000000;stroke-width:0.36500001;stroke-linejoin:round;stroke-miterlimit:4;stroke-dasharray:none;stroke-opacity:1" />
    </g>
    <path
       style="fill:none;stroke:#000000;stroke-width:0.26458332px;stroke-linecap:butt;stroke-linejoin:miter;stroke-opacity:1"
       d="m 189.08464,216.27193 h 13.22917 v 7.9375 h 11.90625"
       id="path905"
       inkscape:connector-curvature="0" />
    <path
       style="fill:none;stroke:#000000;stroke-width:0.26458332px;stroke-linecap:butt;stroke-linejoin:miter;stroke-opacity:1"
       d="m 202.87871,250.31994 v -18.52083 h 11.90625"
       id="path907"
       inkscape:connector-curvature="0"
       sodipodi:nodetypes="ccc" />
    <path
       style="fill:none;stroke:#000000;stroke-width:0.26458332px;stroke-linecap:butt;stroke-linejoin:miter;stroke-opacity:1"
       d="M 44.128714,194.75744 H 33.545381"
       id="path909"
       inkscape:connector-curvature="0" />
    <path
       style="fill:none;stroke:#000000;stroke-width:0.26458332px;stroke-linecap:butt;stroke-linejoin:miter;stroke-opacity:1"
       d="M 33.545381,210.63244 H 44.128714"
       id="path911"
       inkscape:connector-curvature="0" />
    <path
       style="fill:none;stroke:#000000;stroke-width:0.27500859px;stroke-linecap:butt;stroke-linejoin:miter;stroke-opacity:1"
       d="M 44.979167,250.31994 H 33.545381"
       id="path915"
       inkscape:connector-curvature="0" />
    <rect
       style="opacity:1;fill:#000000;fill-opacity:0.39215686;stroke:none;stroke-width:0.86500001;stroke-linejoin:round;stroke-miterlimit:4;stroke-dasharray:none;stroke-opacity:1"
       id="rect917"
       width="89.409775"
       height="37.863445"
       x="40.708519"
       y="183.35233"
       ry="0.17536242" />
    <path
       style="fill:none;stroke:#000000;stroke-width:0.26458332px;stroke-linecap:butt;stroke-linejoin:miter;stroke-opacity:1"
       d="m 116.41667,230.85417 h 21.16666"
       id="path923"
       inkscape:connector-curvature="0"
       sodipodi:nodetypes="cc" />
    <path
       style="fill:none;stroke:#000000;stroke-width:0.26458332px;stroke-linecap:butt;stroke-linejoin:miter;stroke-opacity:1"
       d="m 189.64955,250.31994 h 13.22916"
       id="path925"
       inkscape:connector-curvature="0"
       sodipodi:nodetypes="cc" />
    <rect
       style="opacity:1;fill:#000000;fill-opacity:0.39215686;stroke:none;stroke-width:0.79952604;stroke-linejoin:round;stroke-miterlimit:4;stroke-dasharray:none;stroke-opacity:1"
       id="rect929"
       width="108.50175"
       height="66.145836"
       x="133.592"
       y="196.45834"
       ry="0.17536239" />
    <rect
       style="opacity:1;fill:#000000;fill-opacity:0.39215686;stroke:none;stroke-width:0.86500001;stroke-linejoin:round;stroke-miterlimit:4;stroke-dasharray:none;stroke-opacity:1"
       id="rect931"
       width="92.604164"
       height="38.364597"
       x="41.010418"
       y="224.23959"
       ry="0.17536239" />
    <g
       id="g971"
       transform="translate(95.193301,120.00744)">
      <g
         id="g967"
         transform="translate(3.96875,22.489583)">
        <path
           inkscape:connector-curvature="0"
           id="path963"
           d="M 15.875,53.583334 V 64.166667 L 26.458333,58.875001 Z"
           style="fill:none;stroke:#000000;stroke-width:0.86500001;stroke-linecap:butt;stroke-linejoin:miter;stroke-miterlimit:4;stroke-dasharray:none;stroke-opacity:1" />
        <path
           style="opacity:1;fill:none;fill-opacity:0.39215686;stroke:#000000;stroke-width:0.36500001;stroke-linejoin:round;stroke-miterlimit:4;stroke-dasharray:none;stroke-opacity:1"
           id="path965"
           sodipodi:type="arc"
           sodipodi:cx="28.846575"
           sodipodi:cy="59.010826"
           sodipodi:rx="1.3229166"
           sodipodi:ry="1.3229166"
           sodipodi:start="0"
           sodipodi:end="6.2800794"
           sodipodi:open="true"
           d="m 30.169491,59.010826 a 1.3229166,1.3229166 0 0 1 -1.321889,1.322916 1.3229166,1.3229166 0 0 1 -1.323942,-1.320861 1.3229166,1.3229166 0 0 1 1.319833,-1.324968 1.3229166,1.3229166 0 0 1 1.325992,1.318804" />
      </g>
      <path
         style="fill:none;stroke:#000000;stroke-width:0.26458332px;stroke-linecap:butt;stroke-linejoin:miter;stroke-opacity:1"
         d="M 8.4745473,81.342794 19.591993,81.240068"
         id="path969"
         inkscape:connector-curvature="0"
         sodipodi:nodetypes="cc" />
    </g>
    <g
       transform="translate(154.68881,134.90735)"
       id="g981">
      <g
         transform="translate(3.96875,22.489583)"
         id="g977">
        <path
           style="fill:none;stroke:#000000;stroke-width:0.86500001;stroke-linecap:butt;stroke-linejoin:miter;stroke-miterlimit:4;stroke-dasharray:none;stroke-opacity:1"
           d="M 15.875,53.583334 V 64.166667 L 26.458333,58.875001 Z"
           id="path973"
           inkscape:connector-curvature="0" />
        <path
           d="m 30.169491,59.010826 a 1.3229166,1.3229166 0 0 1 -1.321889,1.322916 1.3229166,1.3229166 0 0 1 -1.323942,-1.320861 1.3229166,1.3229166 0 0 1 1.319833,-1.324968 1.3229166,1.3229166 0 0 1 1.325992,1.318804"
           sodipodi:open="true"
           sodipodi:end="6.2800794"
           sodipodi:start="0"
           sodipodi:ry="1.3229166"
           sodipodi:rx="1.3229166"
           sodipodi:cy="59.010826"
           sodipodi:cx="28.846575"
           sodipodi:type="arc"
           id="path975"
           style="opacity:1;fill:none;fill-opacity:0.39215686;stroke:#000000;stroke-width:0.36500001;stroke-linejoin:round;stroke-miterlimit:4;stroke-dasharray:none;stroke-opacity:1" />
      </g>
      <path
         sodipodi:nodetypes="cc"
         inkscape:connector-curvature="0"
         id="path979"
         d="M 8.4745473,81.342794 19.591993,81.240068"
         style="fill:none;stroke:#000000;stroke-width:0.26458332px;stroke-linecap:butt;stroke-linejoin:miter;stroke-opacity:1" />
    </g>
    <path
       style="fill:none;stroke:#000000;stroke-width:0.26458332px;stroke-linecap:butt;stroke-linejoin:miter;stroke-opacity:1"
       d="m 129.33153,201.50374 2.10076,-0.0839 0.009,10.53553 h 13.22917"
       id="path985"
       inkscape:connector-curvature="0" />
    <g
       transform="matrix(1,0,0,-1,51.593751,234.16667)"
       id="g1043">
      <path
         sodipodi:nodetypes="cc"
         inkscape:connector-curvature="0"
         id="path1037"
         d="m 89.958332,40.354167 c 5.843126,4.833482 8.184271,9.94157 0,15.875"
         style="fill:none;stroke:#000000;stroke-width:0.96499997;stroke-linecap:butt;stroke-linejoin:miter;stroke-miterlimit:4;stroke-dasharray:none;stroke-opacity:1" />
      <path
         sodipodi:nodetypes="cc"
         inkscape:connector-curvature="0"
         id="path1039"
         d="m 89.958332,40.354167 c 28.410348,5.885107 20.721398,11.016165 0,15.875"
         style="fill:none;stroke:#000000;stroke-width:0.96499997;stroke-linecap:butt;stroke-linejoin:miter;stroke-miterlimit:4;stroke-dasharray:none;stroke-opacity:1" />
      <path
         d="m 111.60446,48.049515 a 1.3229166,1.3229166 0 0 1 -1.28891,1.322479 1.3229166,1.3229166 0 0 1 -1.35518,-1.254477 1.3229166,1.3229166 0 0 1 1.21922,-1.386985 1.3229166,1.3229166 0 0 1 1.41788,1.183158"
         sodipodi:open="true"
         sodipodi:end="6.1803331"
         sodipodi:start="0"
         sodipodi:ry="1.3229166"
         sodipodi:rx="1.3229166"
         sodipodi:cy="48.049515"
         sodipodi:cx="110.28154"
         sodipodi:type="arc"
         id="path1041"
         style="opacity:1;fill:none;fill-opacity:0.39215686;stroke:#000000;stroke-width:0.36500001;stroke-linejoin:round;stroke-miterlimit:4;stroke-dasharray:none;stroke-opacity:1" />
    </g>
    <path
       sodipodi:nodetypes="ccc"
       inkscape:connector-curvature="0"
       id="path1045"
       d="m 144.67038,182.28423 -6.89658,-0.18895 -0.19047,-9.44944 H 58.208333"
       style="fill:none;stroke:#000000;stroke-width:0.26458332px;stroke-linecap:butt;stroke-linejoin:miter;stroke-opacity:1" />
    <g
       id="g1053"
       transform="matrix(1,0,0,-1,121.01631,221.46646)">
      <path
         style="fill:none;stroke:#000000;stroke-width:0.96499997;stroke-linecap:butt;stroke-linejoin:miter;stroke-miterlimit:4;stroke-dasharray:none;stroke-opacity:1"
         d="m 89.958332,40.354167 c 5.843126,4.833482 8.184271,9.94157 0,15.875"
         id="path1047"
         inkscape:connector-curvature="0"
         sodipodi:nodetypes="cc" />
      <path
         style="fill:none;stroke:#000000;stroke-width:0.96499997;stroke-linecap:butt;stroke-linejoin:miter;stroke-miterlimit:4;stroke-dasharray:none;stroke-opacity:1"
         d="m 89.958332,40.354167 c 28.410348,5.885107 20.721398,11.016165 0,15.875"
         id="path1049"
         inkscape:connector-curvature="0"
         sodipodi:nodetypes="cc" />
      <path
         style="opacity:1;fill:none;fill-opacity:0.39215686;stroke:#000000;stroke-width:0.36500001;stroke-linejoin:round;stroke-miterlimit:4;stroke-dasharray:none;stroke-opacity:1"
         id="path1051"
         sodipodi:type="arc"
         sodipodi:cx="110.28154"
         sodipodi:cy="48.049515"
         sodipodi:rx="1.3229166"
         sodipodi:ry="1.3229166"
         sodipodi:start="0"
         sodipodi:end="6.1803331"
         sodipodi:open="true"
         d="m 111.60446,48.049515 a 1.3229166,1.3229166 0 0 1 -1.28891,1.322479 1.3229166,1.3229166 0 0 1 -1.35518,-1.254477 1.3229166,1.3229166 0 0 1 1.21922,-1.386985 1.3229166,1.3229166 0 0 1 1.41788,1.183158" />
    </g>
    <path
       inkscape:connector-curvature="0"
       id="path1055"
       d="m 189.27511,186.09419 h 13.22917 v -7.9375 h 11.90625"
       style="fill:none;stroke:#000000;stroke-width:0.26458332px;stroke-linecap:butt;stroke-linejoin:miter;stroke-opacity:1" />
    <path
       sodipodi:nodetypes="ccc"
       inkscape:connector-curvature="0"
       id="path1057"
       d="M 202.40625,152.80209 V 170 h 13.22917"
       style="fill:none;stroke:#000000;stroke-width:0.26458332px;stroke-linecap:butt;stroke-linejoin:miter;stroke-opacity:1" />
    <path
       sodipodi:nodetypes="cccc"
       inkscape:connector-curvature="0"
       id="path1059"
       d="M 202.40625,152.80209 H 9.2604167 l 0.8866483,97.7504 23.398316,-0.23252"
       style="fill:none;stroke:#000000;stroke-width:0.26458332px;stroke-linecap:butt;stroke-linejoin:miter;stroke-opacity:1" />
    <g
       id="g1069"
       transform="matrix(1,0,0,-1,154.87928,267.45877)">
      <g
         id="g1065"
         transform="translate(3.96875,22.489583)">
        <path
           inkscape:connector-curvature="0"
           id="path1061"
           d="M 15.875,53.583334 V 64.166667 L 26.458333,58.875001 Z"
           style="fill:none;stroke:#000000;stroke-width:0.86500001;stroke-linecap:butt;stroke-linejoin:miter;stroke-miterlimit:4;stroke-dasharray:none;stroke-opacity:1" />
        <path
           style="opacity:1;fill:none;fill-opacity:0.39215686;stroke:#000000;stroke-width:0.36500001;stroke-linejoin:round;stroke-miterlimit:4;stroke-dasharray:none;stroke-opacity:1"
           id="path1063"
           sodipodi:type="arc"
           sodipodi:cx="28.846575"
           sodipodi:cy="59.010826"
           sodipodi:rx="1.3229166"
           sodipodi:ry="1.3229166"
           sodipodi:start="0"
           sodipodi:end="6.2800794"
           sodipodi:open="true"
           d="m 30.169491,59.010826 a 1.3229166,1.3229166 0 0 1 -1.321889,1.322916 1.3229166,1.3229166 0 0 1 -1.323942,-1.320861 1.3229166,1.3229166 0 0 1 1.319833,-1.324968 1.3229166,1.3229166 0 0 1 1.325992,1.318804" />
      </g>
      <path
         style="fill:none;stroke:#000000;stroke-width:0.26458332px;stroke-linecap:butt;stroke-linejoin:miter;stroke-opacity:1"
         d="M 8.4745473,81.342794 19.591993,81.240068"
         id="path1067"
         inkscape:connector-curvature="0"
         sodipodi:nodetypes="cc" />
    </g>
    <path
       inkscape:connector-curvature="0"
       id="path1083"
       d="m 232.56876,229.00208 h 7.9375"
       style="fill:none;stroke:#000000;stroke-width:0.26458332px;stroke-linecap:butt;stroke-linejoin:miter;stroke-opacity:1" />
    <path
       style="fill:none;stroke:#000000;stroke-width:0.26458332px;stroke-linecap:butt;stroke-linejoin:miter;stroke-opacity:1"
       d="m 131.43229,201.41984 0.17526,-11.74179 13.30617,0.0727"
       id="path1085"
       inkscape:connector-curvature="0" />
    <g
       transform="matrix(1,0,0,-1,154.87928,267.45877)"
       id="g1095">
      <g
         transform="translate(3.96875,22.489583)"
         id="g1091">
        <path
           style="fill:none;stroke:#000000;stroke-width:0.86500001;stroke-linecap:butt;stroke-linejoin:miter;stroke-miterlimit:4;stroke-dasharray:none;stroke-opacity:1"
           d="M 15.875,53.583334 V 64.166667 L 26.458333,58.875001 Z"
           id="path1087"
           inkscape:connector-curvature="0" />
        <path
           d="m 30.169491,59.010826 a 1.3229166,1.3229166 0 0 1 -1.321889,1.322916 1.3229166,1.3229166 0 0 1 -1.323942,-1.320861 1.3229166,1.3229166 0 0 1 1.319833,-1.324968 1.3229166,1.3229166 0 0 1 1.325992,1.318804"
           sodipodi:open="true"
           sodipodi:end="6.2800794"
           sodipodi:start="0"
           sodipodi:ry="1.3229166"
           sodipodi:rx="1.3229166"
           sodipodi:cy="59.010826"
           sodipodi:cx="28.846575"
           sodipodi:type="arc"
           id="path1089"
           style="opacity:1;fill:none;fill-opacity:0.39215686;stroke:#000000;stroke-width:0.36500001;stroke-linejoin:round;stroke-miterlimit:4;stroke-dasharray:none;stroke-opacity:1" />
      </g>
      <path
         sodipodi:nodetypes="cc"
         inkscape:connector-curvature="0"
         id="path1093"
         d="M 8.4745473,81.342794 19.591993,81.240068"
         style="fill:none;stroke:#000000;stroke-width:0.26458332px;stroke-linecap:butt;stroke-linejoin:miter;stroke-opacity:1" />
    </g>
    <g
       id="g1116"
       transform="translate(23.8125,91.281254)">
      <g
         id="g1112"
         transform="translate(3.96875,22.489583)">
        <path
           inkscape:connector-curvature="0"
           id="path1108"
           d="M 15.875,53.583334 V 64.166667 L 26.458333,58.875001 Z"
           style="fill:none;stroke:#000000;stroke-width:0.86500001;stroke-linecap:butt;stroke-linejoin:miter;stroke-miterlimit:4;stroke-dasharray:none;stroke-opacity:1" />
        <path
           style="opacity:1;fill:none;fill-opacity:0.39215686;stroke:#000000;stroke-width:0.36500001;stroke-linejoin:round;stroke-miterlimit:4;stroke-dasharray:none;stroke-opacity:1"
           id="path1110"
           sodipodi:type="arc"
           sodipodi:cx="28.846575"
           sodipodi:cy="59.010826"
           sodipodi:rx="1.3229166"
           sodipodi:ry="1.3229166"
           sodipodi:start="0"
           sodipodi:end="6.2800794"
           sodipodi:open="true"
           d="m 30.169491,59.010826 a 1.3229166,1.3229166 0 0 1 -1.321889,1.322916 1.3229166,1.3229166 0 0 1 -1.323942,-1.320861 1.3229166,1.3229166 0 0 1 1.319833,-1.324968 1.3229166,1.3229166 0 0 1 1.325992,1.318804" />
      </g>
      <path
         style="fill:none;stroke:#000000;stroke-width:0.26458332px;stroke-linecap:butt;stroke-linejoin:miter;stroke-opacity:1"
         d="M 8.4745473,81.342794 19.591993,81.240068"
         id="path1114"
         inkscape:connector-curvature="0"
         sodipodi:nodetypes="cc" />
    </g>
    <path
       style="fill:none;stroke:#000000;stroke-width:0.26458332px;stroke-linecap:butt;stroke-linejoin:miter;stroke-opacity:1"
       d="M 33.072916,172.64584 H 23.8125 v 58.20833 h 10.583333"
       id="path1118"
       inkscape:connector-curvature="0" />
    <path
       style="fill:none;stroke:#000000;stroke-width:0.26458332px;stroke-linecap:butt;stroke-linejoin:miter;stroke-opacity:1"
       d="M 23.8125,201.75 H 19.84375"
       id="path1120"
       inkscape:connector-curvature="0" />
    <path
       style="fill:none;stroke:#000000;stroke-width:0.26458332px;stroke-linecap:butt;stroke-linejoin:miter;stroke-opacity:1"
       d="M 9.4524757,202.1844 H 2.6176087"
       id="path1122"
       inkscape:connector-curvature="0" />
    <rect
       ry="0.17536239"
       y="139.57292"
       x="133.60001"
       height="55.5625"
       width="108.49375"
       id="rect1124"
       style="opacity:1;fill:#000000;fill-opacity:0.39215686;stroke:none;stroke-width:0.79949653;stroke-linejoin:round;stroke-miterlimit:4;stroke-dasharray:none;stroke-opacity:1" />
    <rect
       ry="0.17536239"
       y="139.57292"
       x="41.010418"
       height="42.333328"
       width="92.604164"
       id="rect1126"
       style="opacity:1;fill:#000000;fill-opacity:0.39215686;stroke:none;stroke-width:0.85888684;stroke-linejoin:round;stroke-miterlimit:4;stroke-dasharray:none;stroke-opacity:1" />
    <path
       inkscape:connector-curvature="0"
       id="path1083-9"
       d="m 232.83333,173.43958 h 7.9375"
       style="fill:none;stroke:#000000;stroke-width:0.26458332px;stroke-linecap:butt;stroke-linejoin:miter;stroke-opacity:1" />
  </g>
</svg>
